<?xml version="1.0" encoding="UTF-8" standalone="no"?>
<svg
   width="397.98071pt"
   height="352.96906pt"
   viewBox="0 0 397.98071 352.96906"
   version="1.1"
   id="svg859"
   sodipodi:docname="d924f720-7db5-46c8-8b11-6a695611892f.svg"
   xml:space="preserve"
   xmlns:inkscape="http://www.inkscape.org/namespaces/inkscape"
   xmlns:sodipodi="http://sodipodi.sourceforge.net/DTD/sodipodi-0.dtd"
   xmlns="http://www.w3.org/2000/svg"
   xmlns:svg="http://www.w3.org/2000/svg"><defs
     id="defs863" /><sodipodi:namedview
     id="namedview861"
     pagecolor="#ffffff"
     bordercolor="#000000"
     borderopacity="0.25"
     inkscape:showpageshadow="2"
     inkscape:pageopacity="0.0"
     inkscape:pagecheckerboard="0"
     inkscape:deskcolor="#d1d1d1"
     inkscape:document-units="pt"
     showgrid="false" /><g
     id="g1168"
     transform="translate(53.928127,33.625772)"><g
       transform="matrix(0.1,0,0,-0.1,-110.96864,376.49327)"
       fill="#f0ae12"
       stroke="none"
       id="g857"><path
         d="m 713,4091 c -120,-30 -174,-136 -124,-246 16,-35 250,-444 671,-1170 70,-121 356,-616 635,-1100 580,-1005 549,-956 611,-985 104,-51 147,-11 328,305 139,242 324,564 625,1084 190,329 208,367 197,424 -18,98 -73,119 -310,115 -199,-3 -142,62 -535,-618 -168,-291 -235,-337 -347,-238 -37,32 -39,35 -259,418 -78,135 -269,466 -425,735 -326,565 -324,560 -318,627 9,88 61,123 200,138 355,36 616,375 380,492 -49,24 -1238,41 -1329,19 z"
         id="path853" /><path
         d="m 3105,4085 c -221,-49 -331,-139 -471,-386 -45,-79 -148,-258 -228,-397 -147,-254 -147,-254 0,-508 81,-140 151,-254 155,-254 3,0 109,179 235,398 267,463 301,506 454,580 275,133 484,26 381,-195 -140,-298 213,-374 506,-109 69,63 314,455 394,630 51,112 -3,220 -121,245 -79,17 -1227,13 -1305,-4 z"
         id="path855" /></g></g></svg>
